<svg xmlns="http://www.w3.org/2000/svg" role="img" aria-label="tomato crate multi-angle demo frame 8 of 12" viewBox="0 0 1200 800"><defs><pattern id="p" width="44" height="44" patternUnits="userSpaceOnUse" patternTransform="rotate(18)"><path d="M0 22h44" stroke="#fff" stroke-opacity=".08" stroke-width="3"/></pattern><filter id="s"><feDropShadow dx="0" dy="16" stdDeviation="14" flood-opacity=".2"/></filter></defs><rect width="1200" height="800" fill="#EAF5EC"/><ellipse cx="600" cy="650" rx="370" ry="70" fill="#0D3520" opacity=".15"/><g transform="rotate(-1.5000000000000004 600 430)"><path d="M270 230h660l-60 390H330Z" fill="#F5EBDD" stroke="#795548" stroke-width="22"/><circle cx="322" cy="300" r="52" fill="#D94C38" stroke="#A82F24" stroke-width="7"/><circle cx="437" cy="300" r="52" fill="#D94C38" stroke="#A82F24" stroke-width="7"/><circle cx="552" cy="300" r="52" fill="#D94C38" stroke="#A82F24" stroke-width="7"/><circle cx="667" cy="300" r="52" fill="#D94C38" stroke="#A82F24" stroke-width="7"/><circle cx="782" cy="300" r="52" fill="#D94C38" stroke="#A82F24" stroke-width="7"/><circle cx="322" cy="410" r="52" fill="#D94C38" stroke="#A82F24" stroke-width="7"/><circle cx="437" cy="410" r="52" fill="#D94C38" stroke="#A82F24" stroke-width="7"/><circle cx="552" cy="410" r="52" fill="#D94C38" stroke="#A82F24" stroke-width="7"/><circle cx="667" cy="410" r="52" fill="#D94C38" stroke="#A82F24" stroke-width="7"/><circle cx="782" cy="410" r="52" fill="#D94C38" stroke="#A82F24" stroke-width="7"/><circle cx="322" cy="520" r="52" fill="#D94C38" stroke="#A82F24" stroke-width="7"/><circle cx="437" cy="520" r="52" fill="#D94C38" stroke="#A82F24" stroke-width="7"/><circle cx="552" cy="520" r="52" fill="#D94C38" stroke="#A82F24" stroke-width="7"/><circle cx="667" cy="520" r="52" fill="#D94C38" stroke="#A82F24" stroke-width="7"/><circle cx="782" cy="520" r="52" fill="#D94C38" stroke="#A82F24" stroke-width="7"/><rect x="320" y="545" width="560" height="75" rx="16" fill="#795548"/></g><text x="60" y="75" fill="#176B3A" font-family="ui-sans-serif,system-ui" font-size="34" font-weight="800">MULTI-ANGLE DEMO · 210°</text><text x="1140" y="75" text-anchor="end" fill="#52665A" font-family="ui-monospace,monospace" font-size="25">FRAME 08/12</text></svg>